Coordinates
version=1
nRows=32
nColumns=22
inDegrees=yes

Units are S.I. units (second, meters, Newtons, ...)
If the header above contains a line with 'inDegrees', this indicates whether rotational values are in degrees (yes) or radians (no).

endheader
time	pelvis_tilt	pelvis_list	pelvis_rotation	pelvis_tx	pelvis_ty	pelvis_tz	hip_flexion_r	hip_adduction_r	hip_rotation_r	knee_angle_r	ankle_angle_r	subtalar_angle_r	hip_flexion_l	hip_adduction_l	hip_rotation_l	knee_angle_l	ankle_angle_l	subtalar_angle_l	lumbar_extension	lumbar_bending	lumbar_rotation
      0.01000000	     -1.41374023	     -4.73905378	     -2.47496228	     -1.10600478	      0.95780808	      0.02720224	      9.69741844	      4.08857725	     -4.36828463	    -18.86122795	     10.20719875	     -0.93159565	     11.07929124	     -6.21002839	     -3.89001569	    -26.41067695	     13.94065798	     -3.91082357	     -5.27255356	      1.80356949	     -1.07222937
      0.02000000	     -1.35122343	     -4.76475560	     -2.33768666	     -1.10552154	      0.95776547	      0.02815200	      9.55941255	      4.17098395	     -4.45139520	    -18.81134980	     10.26067099	     -0.99048635	     11.17353802	     -6.32241365	     -3.80541273	    -26.69626201	     14.00356054	     -3.56140262	     -5.28139736	      1.85270252	     -1.11631248
      0.03000000	     -1.28923276	     -4.78078754	     -2.19415132	     -1.10498273	      0.95769518	      0.02924313	      9.41936865	      4.25609948	     -4.52673688	    -18.76424659	     10.33950873	     -1.09171438	     11.30386210	     -6.44346257	     -3.74528706	    -27.03907166	     14.05338915	     -3.20800037	     -5.28457786	      1.89185847	     -1.14441953
      0.04000000	     -1.22698552	     -4.79476726	     -2.03790407	     -1.10443076	      0.95760625	      0.03039439	      9.28137657	      4.34581512	     -4.60339506	    -18.72284592	     10.42177903	     -1.22955364	     11.47167198	     -6.57711291	     -3.71218579	    -27.43410036	     14.11950113	     -2.77917126	     -5.28978778	      1.93131614	     -1.17288858
      0.05000000	     -1.16917093	     -4.80329857	     -1.88416757	     -1.10390132	      0.95749995	      0.03157673	      9.15649213	      4.43438695	     -4.67886884	    -18.69195962	     10.50680482	     -1.38582921	     11.67375865	     -6.71846361	     -3.72396019	    -27.86388652	     14.20454936	     -2.30626347	     -5.29760017	      1.96213907	     -1.19304356
      0.06000000	     -1.12165631	     -4.80511041	     -1.73537250	     -1.10342580	      0.95737449	      0.03273545	      9.05774758	      4.51541709	     -4.75448755	    -18.67975883	     10.59357154	     -1.54867563	     11.90821173	     -6.86399390	     -3.79966232	    -28.30483198	     14.31879267	     -1.79366022	     -5.30515527	      1.98498308	     -1.20243872
      0.07000000	     -1.09116863	     -4.79748660	     -1.60093570	     -1.10302342	      0.95722724	      0.03385550	      8.99730246	      4.58256789	     -4.83447476	    -18.69205902	     10.68223448	     -1.70594859	     12.16689880	     -7.00977280	     -3.95407076	    -28.72513434	     14.46973963	     -1.25616000	     -5.30664315	      1.99405582	     -1.19683840
      0.08000000	     -1.08168875	     -4.77705525	     -1.48519441	     -1.10270321	      0.95706277	      0.03490766	      8.98144251	      4.62859769	     -4.92102553	    -18.73063790	     10.76768313	     -1.84360910	     12.43799864	     -7.14577736	     -4.18537775	    -29.09476012	     14.66321083	     -0.72484681	     -5.29783724	      1.98888051	     -1.17680570
      0.09000000	     -1.09644689	     -4.74072521	     -1.38990050	     -1.10246865	      0.95688777	      0.03588923	      9.01263017	      4.64885471	     -5.02035514	    -18.79312256	     10.84921670	     -1.95840523	     12.70729889	     -7.26253894	     -4.48149615	    -29.38237874	     14.89591887	     -0.21374688	     -5.27438366	      1.96423791	     -1.14426691
      0.10000000	     -1.13013048	     -4.68673296	     -1.31326353	     -1.10230057	      0.95672465	      0.03678838	      9.08111012	      4.64058138	     -5.13028812	    -18.87484188	     10.92243404	     -2.04342760	     12.94970701	     -7.34707228	     -4.80856223	    -29.56128841	     15.15217863	      0.22970211	     -5.23866673	      1.91898043	     -1.10922138
      0.11000000	     -1.17827018	     -4.61615042	     -1.25014609	     -1.10217728	      0.95659008	      0.03758815	      9.17771271	      4.60556234	     -5.24044506	    -18.97143315	     10.98744535	     -2.10004755	     13.14471525	     -7.38653629	     -5.11881494	    -29.61529323	     15.41525021	      0.58294005	     -5.19225835	      1.85516782	     -1.07740931
      0.12000000	     -1.22844525	     -4.52967006	     -1.19366924	     -1.10206448	      0.95650736	      0.03825776	      9.28214067	      4.54353893	     -5.34530070	    -19.07565137	     11.04365187	     -2.13267291	     13.27138525	     -7.36922460	     -5.36277637	    -29.54754296	     15.65774594	      0.82050302	     -5.14389006	      1.77968127	     -1.05455593
      0.13000000	     -1.27641362	     -4.43667087	     -1.13656208	     -1.10195223	      0.95648063	      0.03882295	      9.37847113	      4.47049078	     -5.43430915	    -19.16796223	     11.07033016	     -2.14864429	     13.33453223	     -7.30501721	     -5.50802283	    -29.38888008	     15.85135020	      0.96991191	     -5.09837513	      1.69762837	     -1.05222813
      0.14000000	     -1.31255607	     -4.35680687	     -1.08087672	     -1.10180110	      0.95651705	      0.03928431	      9.44642197	      4.41023603	     -5.49120030	    -19.23599703	     11.05378819	     -2.15209833	     13.31835561	     -7.21412993	     -5.53384534	    -29.14961557	     16.00058715	      0.97480332	     -5.06088475	      1.63543544	     -1.06156704
      0.15000000	     -1.35546812	     -4.26333891	     -1.02783701	     -1.10162825	      0.95656625	      0.03966543	      9.52054572	      4.33485808	     -5.51309851	    -19.30785076	     11.06905936	     -2.15791412	     13.25569009	     -7.07475086	     -5.44044924	    -28.85759504	     16.05953902	      0.97577266	     -5.00960766	      1.55732842	     -1.08248542
      0.16000000	     -1.38189689	     -4.16773198	     -0.96527461	     -1.10142583	      0.95664670	      0.03995552	      9.57313816	      4.25012764	     -5.54913000	    -19.37955362	     11.10793663	     -2.16680626	     13.14147717	     -6.91440716	     -5.27766730	    -28.54311815	     15.98889661	      0.90390293	     -4.97444929	      1.48107538	     -1.14669217
      0.17000000	     -1.39137004	     -4.10366955	     -0.90310756	     -1.10115161	      0.95676200	      0.04020465	      9.57471874	      4.19891360	     -5.59529256	    -19.39878056	     11.12947543	     -2.17729934	     12.97310249	     -6.77577113	     -5.04952509	    -28.20731727	     15.81703053	      0.64687867	     -4.94982573	      1.43807971	     -1.18477849
      0.18000000	     -1.40279141	     -4.06062832	     -0.84980445	     -1.10086090	      0.95687070	      0.04043930	      9.56728624	      4.17415589	     -5.61013203	    -19.40128005	     11.12561904	     -2.19088697	     12.79175401	     -6.66191854	     -4.81311273	    -27.87167709	     15.57359532	      0.33030876	     -4.92082186	      1.41821519	     -1.23236829
      0.19000000	     -1.41530116	     -4.03468773	     -0.80503640	     -1.10054182	      0.95696802	      0.04066227	      9.55206154	      4.16823627	     -5.62019052	    -19.39101142	     11.11921817	     -2.20681614	     12.60496200	     -6.57345397	     -4.60212878	    -27.54027132	     15.26887241	     -0.04629239	     -4.88692638	      1.41547937	     -1.27060358
      0.20000000	     -1.42993402	     -4.02039421	     -0.77336891	     -1.10022024	      0.95705237	      0.04087791	      9.53880080	      4.17494466	     -5.62140813	    -19.38079624	     11.11358158	     -2.22240802	     12.42298311	     -6.50536938	     -4.43961463	    -27.21653917	     14.92434670	     -0.49211735	     -4.85068199	      1.42440041	     -1.29966111
      0.21000000	     -1.45242394	     -4.01143483	     -0.75834197	     -1.09991781	      0.95711689	      0.04108387	      9.53939405	      4.18608323	     -5.61638389	    -19.37579526	     11.10977061	     -2.23525645	     12.25963964	     -6.44979639	     -4.33268950	    -26.90568555	     14.56925387	     -0.95864051	     -4.81011315	      1.44024036	     -1.31528571
      0.22000000	     -1.47885135	     -4.00367407	     -0.75775952	     -1.09963850	      0.95716806	      0.04128020	      9.55451261	      4.19716038	     -5.60551976	    -19.38513730	     11.10790745	     -2.24614177	     12.11700396	     -6.39992704	     -4.27824665	    -26.61630756	     14.22634851	     -1.44092774	     -4.76913599	      1.45606553	     -1.32078309
      0.23000000	     -1.50909916	     -3.98953172	     -0.77193150	     -1.09938619	      0.95720595	      0.04145448	      9.58567492	      4.19861743	     -5.59296678	    -19.41041966	     11.10803693	     -2.25703448	     11.99588046	     -6.34532724	     -4.26960202	    -26.35174826	     13.91839378	     -1.90352594	     -4.72831289	      1.46584820	     -1.31639195
      0.24000000	     -1.54032494	     -3.96802088	     -0.79581543	     -1.09920112	      0.95723703	      0.04161109	      9.63746067	      4.19258754	     -5.55680935	    -19.46061327	     11.08533380	     -2.26650543	     11.90002418	     -6.28403495	     -4.28238439	    -26.12255041	     13.64670566	     -2.27153642	     -4.69971787	      1.46597240	     -1.32230747
      0.25000000	     -1.56906620	     -3.94547274	     -0.83272045	     -1.09903095	      0.95724952	      0.04174547	      9.69501274	      4.18225549	     -5.53234499	    -19.52113023	     11.09196957	     -2.28424530	     11.80908315	     -6.22189478	     -4.30714175	    -25.91221950	     13.44023496	     -2.72069568	     -4.67878852	      1.46307424	     -1.29061499
      0.26000000	     -1.59325043	     -3.92653266	     -0.86549610	     -1.09890741	      0.95724900	      0.04184200	      9.75485655	      4.17376711	     -5.50552063	    -19.58864908	     11.09793225	     -2.30513395	     11.73952302	     -6.16812934	     -4.33349918	    -25.74637817	     13.29618688	     -3.08807390	     -4.67247544	      1.46520879	     -1.27456462
      0.27000000	     -1.61178607	     -3.90193441	     -0.89830939	     -1.09881260	      0.95724011	      0.04189385	      9.81602871	      4.15644008	     -5.47316271	    -19.66529090	     11.10173632	     -2.32718546	     11.68026695	     -6.11286021	     -4.36059804	    -25.61341490	     13.20377420	     -3.35251820	     -4.67893159	      1.46300463	     -1.25752866
      0.28000000	     -1.62394930	     -3.88266420	     -0.92594637	     -1.09874320	      0.95721944	      0.04190875	      9.87175861	      4.14261431	     -5.44189001	    -19.74216250	     11.11222964	     -2.35205279	     11.63062291	     -6.07124498	     -4.38497159	    -25.51198162	     13.14908890	     -3.55253405	     -4.70118749	      1.46636169	     -1.24541421
      0.29000000	     -1.63001612	     -3.88463102	     -0.93567122	     -1.09870914	      0.95718948	      0.04188034	      9.91606517	      4.14801596	     -5.42794979	    -19.80724491	     11.11192713	     -2.35773714	     11.60431170	     -6.05973975	     -4.38576100	    -25.45944687	     13.15148176	     -3.57411501	     -4.73808140	      1.49644821	     -1.25748791
      0.30000000	     -1.62604783	     -3.85182608	     -0.95949517	     -1.09868282	      0.95715159	      0.04180910	      9.96375163	      4.11133920	     -5.39702620	    -19.89881913	     11.13847876	     -2.37910663	     11.56926117	     -6.01982224	     -4.42598158	    -25.42006152	     13.16361742	     -3.63968335	     -4.78807874	      1.48791546	     -1.23570528
      0.31000000	     -1.62612295	     -3.84891068	     -0.95733795	     -1.09865957	      0.95711142	      0.04170359	      9.99342199	      4.10702482	     -5.37293640	    -19.95220880	     11.14816061	     -2.38532237	     11.55597255	     -6.01817353	     -4.44704214	    -25.40200100	     13.16471242	     -3.64351894	     -4.83314430	      1.51495034	     -1.26563915
      0.32000000	     -1.61061931	     -3.82266058	     -0.98022744	     -1.09865704	      0.95707339	      0.04162381	     10.01732365	      4.07698191	     -5.34560635	    -20.02332596	     11.20140594	     -2.40987997	     11.52938464	     -6.00616989	     -4.52501457	    -25.40004551	     13.19394430	     -3.62473699	     -4.90093225	      1.50868767	     -1.25337644
